#!OML:ASF F:\VICON\USERDATA\INSTALL\rory3\rory3.ASF
:FULLY-SPECIFIED
:DEGREES
72
root -0.04453907990670497 17.78799750991605 25.040815975554658 -3.164790351522355 0.23403083778415468 -2.259605914800314
lfemur 6.648417739708661 -3.480571845552863 -19.611726041160008
ltibia 35.76628752422489
lfoot -0.20116644054185695 -3.802662354861054
ltoes -2.6014979842252823
rfemur -21.465082924861715 5.083728424433744 24.011195241909117
rtibia 29.418352373840833
rfoot -4.166138632535595 -6.454806766870858
rtoes 4.274509607602818
lowerback 9.52022137122795 -1.039812123071199 0.2159049950324481
upperback 0.48179391976843056 -1.3889455621186029 2.231521244982602
thorax -4.726897191201907 -1.071470442294385 3.5647300603859065
lowerneck -16.70050741181188 -2.991413288202154 -2.43981700920405
upperneck 20.75612297230417 -3.710377281903667 1.424622895898814
head 9.437453061466487 -1.7726265945019193 0.26538521129710424
lclavicle -1.957644111750315e-15 8.913789176356585e-16
lhumerus -29.433912129636326 -1.001970659279989 83.27670934664954
lradius 29.178805948345918
lwrist 5.776268789996914
lhand -26.953475903666618 24.783417336081325
lfingers 7.12502
lthumb -0.5026492626227809 54.39519478787116
rclavicle -1.951223206124165e-15 9.086309275707269e-16
rhumerus -30.84486084283044 -21.087817315471092 -77.30369877547382
rradius 20.32113586348812
rwrist 11.87097459529262
rhand -17.327498586485614 22.789609368196746
rfingers 7.12502
rthumb 8.851447548983735 -6.9646499181100125
73
root -0.11147637885693046 17.87096398448398 25.815431263770705 -3.433023853434972 0.203403032664768 -3.4353013582633647
lfemur 1.365510380793296 -2.4978501449742216 -17.33886391544402
ltibia 45.47890734392526
lfoot 0.5848457563733875 -4.256367156937753
ltoes -2.549944873249724
rfemur -19.17814349028097 5.400984309639102 25.647246119701265
rtibia 30.549183371996545
rfoot -4.549794573637492 -6.428535077838282
rtoes 6.0236445430986825
lowerback 9.574490125213439 -0.798811110461536 1.1785770919480751
upperback 0.4754379672376922 -1.190616724365447 2.495868871268956
thorax -4.777809956172168 -0.9955575269109211 3.3579234049989397
lowerneck -16.757805992331768 -2.9608189840825694 -2.448372604687258
upperneck 20.718546797960517 -3.6741734580144576 1.4356360173481462
head 9.431754040233594 -1.7632294734364915 0.26075485376395996
lclavicle -1.957644031067308e-15 8.913790156890663e-16
lhumerus -30.247842733828183 -1.2843588053850852 83.37943239733258
lradius 29.802957288806606
lwrist 5.721975891674352
lhand -26.948174874659497 24.83086184639244
lfingers 7.12502
lthumb -0.5022438336711443 54.46462237157908
rclavicle -1.9512231938587064e-15 9.08630938388415e-16
rhumerus -30.2450022179236 -20.06652121343566 -78.0769146977274
rradius 20.493885438269434
rwrist 11.05320408713192
rhand -17.371283273745213 22.793796655405533
rfingers 7.12502
rthumb 8.838940243882634 -6.9385412827334125
74
root -0.15667815428022974 17.944400545654236 26.505968980986715 -3.588165567739344 -0.048090736172116344 -4.264548140842269
lfemur -3.861776510422639 -1.217530876384953 -15.770555238646448
ltibia 54.3532866228195
lfoot 0.8879693153157131 -3.2984238928682794
ltoes -2.5541409582546253
rfemur -16.55763999094676 5.6933216086741885 27.090719361022128
rtibia 30.306289820384787
rfoot -5.028170258443596 -6.5389999347926935
rtoes 6.88920963887389
lowerback 9.616081519337536 -0.45816388046913625 2.077160763050392
upperback 0.4895271608750588 -0.9032453899640323 2.6615076383769427
thorax -4.836443947200924 -0.8701984324154157 3.0581996802304903
lowerneck -16.795398100471942 -2.925099090696781 -2.4470842611376815
upperneck 20.720778135829892 -3.641144345428552 1.4545515241078966
head 9.425840833194982 -1.757595106501856 0.25979414329229517
lclavicle -1.957644082717059e-15 8.913789288432604e-16
lhumerus -31.031106147985103 -1.4516871390829398 83.40314388091997
lradius 30.22481828377233
lwrist 5.726739056183352
lhand -26.941304135837832 24.859005226089717
lfingers 7.12502
lthumb -0.5029222115911446 54.508028671976376
rclavicle -1.951223188263175e-15 9.086309429593647e-16
rhumerus -29.559688292909755 -18.846648482531208 -78.74077885091776
rradius 20.810448082979214
rwrist 9.984672945824055
rhand -17.406087644273715 22.810365739731036
rfingers 7.12502
rthumb 8.835214625713968 -6.89727344314152
75
root -0.18146157944445046 17.99525391640411 27.046851571797582 -3.6213791133489734 -0.5489659689566431 -4.776031738087843
lfemur -8.723910219023622 0.09830118033717294 -14.903113076560434
ltibia 60.91652689508517
lfoot -0.17725555931672687 -2.561258527426069
ltoes -2.6016168180519994
rfemur -14.309582868867274 5.8508283569855415 28.041966853300025
rtibia 29.73254306967727
rfoot -5.553885073965718 -6.508515712916108
rtoes 6.3041485483948065
lowerback 9.636938062628714 -0.04829478803063092 2.885400637831869
upperback 0.5136620853107633 -0.5521833826805185 2.702403011744694
thorax -4.893680773551145 -0.693408747012286 2.679296930965243
lowerneck -16.8162552411047 -2.8949902006904655 -2.449997826100255
upperneck 20.74818426737739 -3.617007699111457 1.4708916676399437
head 9.420584083035823 -1.756198613728423 0.26666562437055386
lclavicle -1.957644143626326e-15 8.91378819743103e-16
lhumerus -31.64299321074963 -1.3377735878644488 83.38019528242069
lradius 30.43247997767893
lwrist 5.637853563126994
lhand -26.934121856233745 24.86642466571615
lfingers 7.12502
lthumb -0.4986917909329325 54.5374670036192
rclavicle -1.951223169755382e-15 9.086309603321982e-16
rhumerus -28.87232599796257 -17.459557806261405 -79.27091357117229
rradius 21.232626054480296
rwrist 8.613763183132999
rhand -17.430493162836033 22.834718420244375
rfingers 7.12502
rthumb 8.836978342508433 -6.854345630389847
76
root -0.18940527794702516 18.01504708669735 27.500864677020083 -3.5348734806329065 -1.2548363455271385 -5.183444742082182
lfemur -13.218519185371871 1.2271006602061632 -14.497781530288528
ltibia 64.6715680786647
lfoot -1.5772672117776096 -2.641710387952378
ltoes -2.7300621063841386
rfemur -12.576999875768893 5.88225063852135 28.674817439807505
rtibia 29.283767668391366
rfoot -6.157101914266434 -6.53342699118782
rtoes 5.487817031028408
lowerback 9.642834227032056 0.3873896206471628 3.6166161991213936
upperback 0.5295709563731128 -0.14852962855970486 2.6436014961326437
thorax -4.945544933894056 -0.47303169998666705 2.2215437490168615
lowerneck -16.813934166104534 -2.872536109241235 -2.448751985391654
upperneck 20.76953123709682 -3.5990526956957054 1.482054848710825
head 9.414483386754005 -1.7588511772114541 0.27689771641327277
lclavicle -1.9576441573959418e-15 8.913788436132694e-16
lhumerus -31.990759481809732 -0.8956090761734423 83.33072180613947
lradius 30.430850758114577
lwrist 5.429355681483122
lhand -26.9258103805302 24.85741088771022
lfingers 7.12502
lthumb -0.48897642916530865 54.55726007488314
rclavicle -1.951223160113057e-15 9.086309677625504e-16
rhumerus -28.2009296103474 -16.056326961572438 -79.67155120062804
rradius 21.79008647155214
rwrist 7.08241320141144
rhand -17.444343060101104 22.861769408747634
rfingers 7.12502
rthumb 8.843238130293841 -6.8177762794931835
77
root -0.18361551195303177 18.004580176987268 28.019802593854664 -3.3368058368140563 -2.0343210780475554 -5.611526091186543
lfemur -17.351858312229055 2.048376900264097 -14.249570599452792
ltibia 65.71425199634638
lfoot -2.071276835768034 -2.452186713819204
ltoes -2.9047311283556434
rfemur -10.902433253301982 5.965145138923342 29.35691843921969
rtibia 28.967064076404785
rfoot -6.823741668836801 -6.683188918976827
rtoes 4.474050965207147
lowerback 9.647551794488571 0.8178991847448915 4.3243741976586865
upperback 0.5285645830059249 0.30767858782507795 2.5415100942795257
thorax -4.986730709659627 -0.21609293096734872 1.6943972727695555
lowerneck -16.810190019387385 -2.8665161232082155 -2.462354926323148
upperneck 20.780597269233112 -3.588056954651355 1.4978624014214859
head 9.404452810796109 -1.7671692578405573 0.28734294825068296
lclavicle -1.9576442053683634e-15 8.9137884501396e-16
lhumerus -32.405250565458026 -0.3877890515275568 83.17726452095083
lradius 30.240721126854073
lwrist 5.1722189879713
lhand -26.916509834137024 24.83277425083993
lfingers 7.12502
lthumb -0.4749542500474835 54.565807663488656
rclavicle -1.95122314233936e-15 9.08630984362668e-16
rhumerus -27.57199172420681 -14.83557787399884 -79.9801471487552
rradius 22.509155387258474
rwrist 5.599497290536922
rhand -17.452272662457183 22.87863446149389
rfingers 7.12502
rthumb 8.853127664990478 -6.793675550873244
78
root -0.16657824568874974 17.97429211098081 28.62605310743917 -3.0270135384048253 -2.733440657475696 -6.109063241457164
lfemur -21.239826234013584 2.4445550997520935 -14.013829664576871
ltibia 64.17348782661712
lfoot -2.7986538388973505 -2.291465343150887
ltoes -3.1869373674219017
rfemur -9.3911778868684 6.063307675029763 30.066099204339423
rtibia 28.819293068047045
rfoot -7.092328938891544 -6.735414553518686
rtoes 3.2784709268204058
lowerback 9.639660607505988 1.2062637596187122 4.97871271929078
upperback 0.5138137125018603 0.8166114140236986 2.4465584255657813
thorax -5.016133157269991 0.06499861441252369 1.1100031385322044
lowerneck -16.779123128695673 -2.8643254471798705 -2.4594651002619523
upperneck 20.779428996058975 -3.586931922382017 1.5023499468496788
head 9.391801758655465 -1.7803198827863576 0.293788922479715
lclavicle -1.9576443148830916e-15 8.913787175669401e-16
lhumerus -32.79065087602091 0.13200540128667604 83.0257603451401
lradius 29.89564234347887
lwrist 4.928239876856392
lhand -26.908196439811718 24.787390570803765
lfingers 7.12502
lthumb -0.4598479427526866 54.559646523333626
rclavicle -1.9512231470133726e-15 9.086309786450383e-16
rhumerus -26.96024024950387 -13.818633294602842 -80.18919058758932
rradius 23.35767426115663
rwrist 4.243150417548213
rhand -17.45646905942929 22.880976484033315
rfingers 7.12502
rthumb 8.8645015525235 -6.792606187544438
